<svg width="72" height="72" viewBox="0 0 72 72" fill="none" xmlns="http://www.w3.org/2000/svg">
<path d="M29.148 29.145C27.7072 30.1476 26.5039 31.454 25.6229 32.9721C24.7419 34.4903 24.2047 36.1832 24.0492 37.9316C23.8936 39.68 24.1235 41.4411 24.7226 43.091C25.3218 44.7408 26.2755 46.2392 27.5167 47.4803C28.7578 48.7215 30.2562 49.6753 31.906 50.2744C33.5559 50.8735 35.3171 51.1034 37.0654 50.9478C38.8138 50.7923 40.5067 50.2551 42.0249 49.3741C43.543 48.4931 44.8494 47.2898 45.852 45.849" stroke="#888888" stroke-width="3" stroke-linecap="round" stroke-linejoin="round"/>
<path d="M57 28.5V28.5294" stroke="#888888" stroke-width="3" stroke-linecap="round" stroke-linejoin="round"/>
<path d="M6 6L66 66M19.488 19.488C19.143 19.5 18.726 19.5 18.162 19.5C15.222 19.5 13.752 19.5 12.549 19.839C11.0697 20.2575 9.72222 21.048 8.63512 22.1351C7.54803 23.2222 6.75753 24.5697 6.339 26.049C6 27.249 6 28.719 6 31.659V43.5C6 51.984 6 56.229 8.637 58.863C11.271 61.5 15.516 61.5 24 61.5H48C54 61.5 57.879 61.5 60.57 60.57M65.634 53.634C66 51.15 66 47.892 66 43.5V31.662C66 28.722 66 27.252 65.661 26.049C65.2425 24.5697 64.452 23.2222 63.3649 22.1351C62.2778 21.048 60.9303 20.2575 59.451 19.839C58.251 19.5 56.781 19.5 53.841 19.5C52.74 19.5 52.191 19.5 51.681 19.41C50.4146 19.1894 49.2525 18.5679 48.366 17.637C48.006 17.259 47.109 15.915 46.5 15C45.312 13.215 44.715 12.324 43.902 11.712C43.4057 11.337 42.8541 11.0415 42.267 10.836C41.307 10.5 40.236 10.5 38.091 10.5H33.909C31.764 10.5 30.693 10.5 29.73 10.836C29.1429 11.0415 28.5913 11.337 28.095 11.712C27.435 12.213 26.916 12.897 26.1 14.103" stroke="#888888" stroke-width="3" stroke-linecap="round" stroke-linejoin="round"/>
<path d="M15.8516 39H14.7207L10.4258 32.4258V39H9.29492V30.4688H10.4258L14.7324 37.0723V30.4688H15.8516V39ZM24.4121 35.0098C24.4121 35.8457 24.2715 36.5762 23.9902 37.2012C23.709 37.8223 23.3105 38.2969 22.7949 38.625C22.2793 38.9531 21.6777 39.1172 20.9902 39.1172C20.3184 39.1172 19.7227 38.9531 19.2031 38.625C18.6836 38.293 18.2793 37.8223 17.9902 37.2129C17.7051 36.5996 17.5586 35.8906 17.5508 35.0859V34.4707C17.5508 33.6504 17.6934 32.9258 17.9785 32.2969C18.2637 31.668 18.666 31.1875 19.1855 30.8555C19.709 30.5195 20.3066 30.3516 20.9785 30.3516C21.6621 30.3516 22.2637 30.5176 22.7832 30.8496C23.3066 31.1777 23.709 31.6562 23.9902 32.2852C24.2715 32.9102 24.4121 33.6387 24.4121 34.4707V35.0098ZM23.293 34.459C23.293 33.4473 23.0898 32.6719 22.6836 32.1328C22.2773 31.5898 21.709 31.3184 20.9785 31.3184C20.2676 31.3184 19.707 31.5898 19.2969 32.1328C18.8906 32.6719 18.6816 33.4219 18.6699 34.3828V35.0098C18.6699 35.9902 18.875 36.7617 19.2852 37.3242C19.6992 37.8828 20.2676 38.1621 20.9902 38.1621C21.7168 38.1621 22.2793 37.8984 22.6777 37.3711C23.0762 36.8398 23.2812 36.0801 23.293 35.0918V34.459ZM30.5879 39H29.4629V30.4688H30.5879V39ZM34.1035 30.4688L36.8926 37.4297L39.6816 30.4688H41.1406V39H40.0156V35.6777L40.1211 32.0918L37.3203 39H36.459L33.6641 32.1094L33.7754 35.6777V39H32.6504V30.4688H34.1035ZM47.9434 36.7734H44.3691L43.5664 39H42.4062L45.6641 30.4688H46.6484L49.9121 39H48.7578L47.9434 36.7734ZM44.709 35.8477H47.6094L46.1562 31.8574L44.709 35.8477ZM57.2891 37.8809C57 38.2949 56.5957 38.6055 56.0762 38.8125C55.5605 39.0156 54.959 39.1172 54.2715 39.1172C53.5762 39.1172 52.959 38.9551 52.4199 38.6309C51.8809 38.3027 51.4629 37.8379 51.166 37.2363C50.873 36.6348 50.7227 35.9375 50.7148 35.1445V34.4004C50.7148 33.1152 51.0137 32.1191 51.6113 31.4121C52.2129 30.7051 53.0566 30.3516 54.1426 30.3516C55.0332 30.3516 55.75 30.5801 56.293 31.0371C56.8359 31.4902 57.168 32.1348 57.2891 32.9707H56.1641C55.9531 31.8418 55.2812 31.2773 54.1484 31.2773C53.3945 31.2773 52.8223 31.543 52.4316 32.0742C52.0449 32.6016 51.8496 33.3672 51.8457 34.3711V35.0684C51.8457 36.0254 52.0645 36.7871 52.502 37.3535C52.9395 37.916 53.5312 38.1973 54.2773 38.1973C54.6992 38.1973 55.0684 38.1504 55.3848 38.0566C55.7012 37.9629 55.9629 37.8047 56.1699 37.582V35.666H54.1953V34.752H57.2891V37.8809ZM63.9922 35.0566H60.2949V38.0801H64.5898V39H59.1699V30.4688H64.5312V31.3945H60.2949V34.1367H63.9922V35.0566Z" fill="#3F414D"/>
</svg>
