<svg width="47" height="55" viewBox="0 0 47 55" fill="none" xmlns="http://www.w3.org/2000/svg">
<path d="M9.61981 31.4248C9.61981 34.7612 11.6347 37.6271 14.5141 38.872M32.7608 43.5892H24.8254V53.7262H32.935C34.4917 52.6884 34.68 50.4729 33.3207 49.1873L32.7608 48.6577V43.5892ZM32.7608 43.5892V39.0131M14.5141 43.5892H21.7843V53.7262H14.5141C12.695 52.7758 12.4642 50.2642 14.0796 48.9982L14.5141 48.6577V43.5892ZM14.5141 43.5892V38.872M16.7157 16.1173L9.61981 23.2132M30.2104 16.464L38.0035 24.2571M15.0332 7.09595C15.0332 7.09595 20.549 4.95978 23.8117 5.06854C26.6921 5.16455 32.2416 7.09595 32.2416 7.09595M14.6568 11.753C15.4196 16.0209 19.1502 19.2603 23.6374 19.2603C28.1686 19.2603 31.9282 15.9571 32.6396 11.6273M14.6568 11.753C14.563 11.2285 14.5141 10.6885 14.5141 10.137C14.5141 5.09832 18.5988 1.01367 23.6374 1.01367C28.6761 1.01367 32.7608 5.09832 32.7608 10.137C32.7608 10.6445 32.7193 11.1424 32.6396 11.6273M14.6568 11.753C11.7015 12.9639 9.61981 15.869 9.61981 19.2603V23.2132M32.6396 11.6273C35.7671 12.7525 38.0035 15.7453 38.0035 19.2603V24.2571M9.61981 23.2132L4.81835 28.0147C3.63073 29.2023 3.63073 31.1278 4.81835 32.3155C6.00598 33.5031 7.93151 33.5031 9.11913 32.3155L14.5141 26.9204V38.872M37.8956 32.7508L32.7608 27.6159V39.0131M37.8956 32.7508C37.4213 35.6344 35.4259 38.0057 32.7608 39.0131M37.8956 32.7508C39.0749 33.9301 40.9945 33.9226 42.1738 32.7433C43.3614 31.5557 43.369 29.6226 42.1813 28.435L38.0035 24.2571" stroke="white" stroke-width="2.02741"/>
</svg>
