<svg width="109" height="109" viewBox="0 0 109 109" fill="none" xmlns="http://www.w3.org/2000/svg">
<path d="M76.3472 35.9138C73.2037 35.4685 69.6355 35.5798 65.6838 36.6387C63.171 37.312 60.7581 38.0448 58.482 38.8398M76.3472 35.9138C86.414 37.3397 92.1253 44.4731 92.1253 44.4731C92.1253 44.4731 90.3615 53.4126 82.705 59.6412M76.3472 35.9138C76.3472 35.9138 76.2811 43.656 77.5554 48.3771C78.8159 53.0468 82.705 59.6412 82.705 59.6412M82.705 59.6412C80.198 61.6807 77.0591 63.4296 73.1435 64.4788C68.6505 65.6827 64.2384 66.5629 60.1583 66.9702M53.1788 40.9225C53.1788 40.9225 53.3025 49.3506 54.6868 54.5048C56.0658 59.6392 60.1583 66.9702 60.1583 66.9702M53.1788 40.9225C54.8409 40.1856 56.6154 39.4918 58.482 38.8398M53.1788 40.9225C52.2519 41.3335 51.3599 41.758 50.5064 42.1962M60.1583 66.9702C52.2727 67.7575 45.627 66.7786 42.0322 62.9574L39.4743 53.411C40.4956 48.9542 44.5698 45.2439 50.5064 42.1962M58.482 38.8398C58.482 38.8398 53.1845 30.3964 48.5592 31.6361C44.0849 32.8353 34.4441 38.6153 34.4441 38.6153L34.8437 40.1067L45.7809 37.1761C48.2954 36.5023 50.5064 42.1962 50.5064 42.1962M65.282 66.2064C65.282 66.2064 64.9159 76.1673 60.2904 77.4064C55.8161 78.605 44.5768 78.4198 44.5768 78.4198L44.1772 76.9284L55.1144 73.9978C57.6289 73.324 56.6968 67.2875 56.6968 67.2875M39.9319 53.1302C39.9319 53.1302 35.1287 51.1557 32.2524 51.458C28.6829 51.8332 24.396 56.2273 24.396 56.2273L30.8769 57.6878L16.6375 63.6346L29.5014 63.9176L25.6221 67.6212C25.6221 67.6212 34.4933 68.6815 36.9324 67.7877C39.3716 66.8939 42.5961 63.0731 42.5961 63.0731M67.8529 57.9041C64.2836 58.8605 60.6147 56.7423 59.6583 53.1729C58.7019 49.6036 60.8201 45.9347 64.3895 44.9783C67.9588 44.0219 71.6277 46.1401 72.5841 49.7095C73.5405 53.2788 71.4223 56.9477 67.8529 57.9041Z" stroke="white" stroke-width="2.78125" stroke-linecap="round" stroke-linejoin="round"/>
</svg>
