<svg width="47" height="48" viewBox="0 0 47 48" fill="none" xmlns="http://www.w3.org/2000/svg">
<path d="M20.403 28.524L18.0083 25.6612M20.403 28.524C21.0643 29.3146 22.2413 29.4194 23.0319 28.7581L35.9147 17.9816C35.9147 17.9816 37.3463 16.7844 34.9514 13.9214C32.5565 11.0584 31.1252 12.2559 31.1252 12.2559L18.2423 23.0323C17.4518 23.6936 17.347 24.8706 18.0083 25.6612M20.403 28.524L18.9715 29.7212L16.5767 26.8584L18.0083 25.6612M3.63958 8.4838L10.7967 2.4969L20.3758 13.9484L13.2186 19.9353L3.63958 8.4838ZM41.9286 39.7141L34.7715 45.701L25.1924 34.2496L32.3496 28.2627L41.9286 39.7141ZM7.93387 4.89166L6.50244 6.08904L18.4762 20.4034L19.9077 19.206L7.93387 4.89166ZM39.0658 42.1089L37.6343 43.3063L25.6605 28.9919L27.092 27.7946L39.0658 42.1089ZM11.7601 6.55714L12.9574 7.98858L8.66315 11.5807L7.46577 10.1493L11.7601 6.55714ZM33.8081 41.6408L32.6108 40.2093L36.905 36.6172L38.1024 38.0486L33.8081 41.6408ZM15.3522 10.8514L16.5496 12.2829L12.2553 15.875L11.0579 14.4436L15.3522 10.8514ZM30.216 37.3465L29.0186 35.9151L33.3129 32.3229L34.5103 33.7543L30.216 37.3465ZM16.3427 29.4872C18.9878 32.6494 20.0586 36.1109 17.9115 37.907C17.0221 38.651 14.6935 36.2415 12.0484 33.0793C9.40318 29.9171 7.44304 27.1995 8.33242 26.4556C10.4796 24.6595 13.6975 26.3249 16.3427 29.4872Z" stroke="white" stroke-width="1.8662"/>
</svg>
